<svg version="1.1" id="Layer_1" xmlns="http://www.w3.org/2000/svg" xmlns:xlink="http://www.w3.org/1999/xlink" x="0px" y="0px" width="100%" viewBox="0 0 530 530" enable-background="new 0 0 530 530" xml:space="preserve">
    <style>
        @media (prefers-color-scheme: light) {
            .mcww-logo-svg {
                fill: #261e19;
            }
            .bg-square {
                fill: #f6f5f3;
            }
        }
        @media (prefers-color-scheme: dark) {
            .mcww-logo-svg {
                fill: #f6f5f3;
            }
            .bg-square {
                fill: #18181b;
            }
        }
    </style>
    <rect class="bg-square" fill="#f6f5f3" x="0" y="0" width="530" height="530" rx="80" ry="80" />

    <path class="mcww-logo-svg" fill="#261e19" opacity="1.000000" stroke="none" d=" M225.075378,237.904480   C211.754318,228.739014 198.872818,219.559296 185.684387,210.844040   C163.819962,196.395447 139.739243,187.702759 113.793106,184.092667   C99.644569,182.124084 94.901291,172.638947 101.918854,160.173584   C107.256493,150.692276 114.788383,143.319977 124.129799,137.697647   C154.356018,119.505371 184.593536,101.330482 214.706467,82.951889   C238.571243,68.386673 262.827728,67.599174 287.899658,79.623932   C338.426208,103.856995 389.019806,127.950455 439.618164,152.033463   C447.225769,155.654404 454.219604,159.970230 459.590118,166.615936   C469.470551,178.842316 471.072998,192.988495 462.105530,205.865906   C455.705841,215.055969 448.008575,223.622147 439.690308,231.138733   C421.906372,247.208832 401.435760,259.371368 379.397797,268.787018   C340.585724,285.369232 302.517853,283.772858 265.672211,263.064850   C251.910294,255.330353 238.789932,246.454391 225.075378,237.904480  M126.360588,155.811279   C122.881889,159.403687 119.403183,162.996094 115.452545,167.075851   C117.375252,167.769058 117.807060,168.009628 118.264519,168.077576   C151.945496,173.080734 181.490082,187.461304 209.151764,206.857391   C230.100891,221.546738 251.387253,235.911789 273.485443,248.767685   C303.870087,266.444305 336.029266,268.463226 368.998383,255.365173   C391.353485,246.483902 411.661926,234.280914 429.634491,218.407944   C436.185760,212.622040 442.133820,205.917618 447.302399,198.859909   C454.104797,189.571335 452.514587,180.788879 443.719635,173.324753   C441.337158,171.302765 438.617584,169.538528 435.796539,168.193344   C383.398010,143.207474 330.975128,118.272362 278.523590,93.397858   C259.922180,84.576355 241.735855,86.078491 224.110550,96.250595   C216.909927,100.406288 209.841553,104.792580 202.740601,109.119255   C177.459549,124.523224 152.190353,139.946686 126.360588,155.811279  z"/>
    <path class="mcww-logo-svg" fill="#261e19" opacity="1.000000" stroke="none" d=" M371.942017,366.893402   C346.298462,376.071014 320.753204,379.017517 294.823578,369.980591   C275.747009,363.332062 259.386414,352.107117 245.429459,337.806183   C228.573792,320.535156 212.448914,302.542358 196.235458,284.655518   C178.535202,265.128357 160.595581,245.901718 138.581421,231.032318   C107.212814,209.844498 72.501320,199.400513 34.749512,198.732620   C31.751059,198.679550 28.747675,198.733063 25.754723,198.578995   C20.244244,198.295319 17.015118,195.139069 17.115589,190.292938   C17.216074,185.446213 20.623922,182.149124 25.901777,182.117264   C61.783459,181.900635 95.890594,189.078949 127.866005,205.900787   C158.493454,222.013504 182.670212,245.603760 205.518799,270.966034   C222.899399,290.258728 240.369934,309.502502 258.557800,328.024323   C270.395630,340.079498 284.457794,349.463440 300.730713,354.920349   C323.516113,362.561157 345.832184,359.416534 367.601837,351.047394   C415.293762,332.712738 455.650177,303.781830 489.397583,265.514557   C489.837799,265.015381 490.261017,264.498749 490.729248,264.027069   C494.287781,260.442657 498.783813,260.059265 502.351257,263.024200   C505.966858,266.029175 506.689819,270.672455 503.160461,274.482391   C494.115326,284.246460 485.171570,294.191437 475.319183,303.104523   C444.922394,330.603363 410.767273,352.217865 371.942017,366.893402  z"/>
    <path class="mcww-logo-svg" fill="#261e19" opacity="1.000000" stroke="none" d=" M309.478363,474.497925   C289.656464,479.110962 271.393799,476.259247 253.313873,467.743744   C210.425400,447.543732 167.076904,428.321747 124.146599,408.208771   C102.153893,397.905121 90.279190,379.908173 89.873039,355.578674   C89.264069,319.099670 89.530304,282.605835 89.465492,246.118225   C89.455154,240.298981 92.960838,236.342590 97.865913,236.343079   C102.618973,236.343552 105.957161,239.872421 105.984566,245.704391   C106.094894,269.176575 106.021530,292.649567 106.034767,316.122253   C106.041901,328.779663 105.938011,341.439545 106.150101,354.093872   C106.460037,372.586426 114.516983,386.148224 131.715454,394.005432   C175.724442,414.111237 219.572174,434.572693 263.677826,454.463013   C284.666290,463.928162 305.200256,462.577148 325.083038,450.137848   C356.967621,430.189819 388.881470,410.260895 421.310760,391.222992   C437.660187,381.624939 446.837341,368.921936 446.501373,349.760010   C446.481049,348.601501 446.983032,346.971527 447.826080,346.337433   C452.279785,342.987457 456.920776,339.886505 461.923157,336.402191   C463.410797,358.355804 461.810089,378.713867 444.775330,394.436768   C441.983368,397.013763 438.870544,399.332886 435.629181,401.319489   C400.023468,423.141876 364.435883,444.996307 328.642731,466.508148   C322.889923,469.965576 316.152863,471.785339 309.478363,474.497925  z"/>
</svg>
