<?xml version="1.0" encoding="utf-8"?>
<svg version="1.1" id="Layer_1" xmlns="http://www.w3.org/2000/svg" x="0px" y="0px" width="100%" viewBox="0 0 530 530" enable-background="new 0 0 530 530">
    <style>
        @media (prefers-color-scheme: light) {
            .mcww-logo-svg {
                fill: #261e19;
            }
            .bg-square {
                fill: #f6f5f3;
            }
        }
        @media (prefers-color-scheme: dark) {
            .mcww-logo-svg {
                fill: #f6f5f3;
            }
            .bg-square {
                fill: #18181b;
            }
        }
    </style>
    <rect class="bg-square" fill="#f6f5f3" x="0" y="0" width="530" height="530" rx="80" ry="80"/>
    <path class="mcww-logo-svg" fill="#261e19" opacity="1.000000" stroke="none" d="M 217.075 229.904 C 203.754 220.739 190.873 211.559 177.684 202.844 C 155.82 188.395 131.739 179.703 105.793 176.093 C 91.645 174.124 86.901 164.639 93.919 152.174 C 99.256 142.692 106.788 135.32 116.13 129.698 C 146.356 111.505 176.594 93.33 206.706 74.952 C 230.571 60.387 254.828 59.599 279.9 71.624 C 330.426 95.857 381.02 119.95 431.618 144.033 C 439.226 147.654 446.22 151.97 451.59 158.616 C 461.471 170.842 463.073 184.988 454.106 197.866 C 447.706 207.056 440.009 215.622 431.69 223.139 C 413.906 239.209 393.436 251.371 371.398 260.787 C 332.586 277.369 294.518 275.773 257.672 255.065 C 243.91 247.33 230.79 238.454 217.075 229.904 M 118.361 147.811 C 108.418 157.545 111.403 154.996 107.453 159.076 C 109.375 159.769 109.807 160.01 110.265 160.078 C 143.945 165.081 173.49 179.461 201.152 198.857 C 222.101 213.547 243.387 227.912 265.485 240.768 C 295.87 258.444 328.029 260.463 360.998 247.365 C 383.353 238.484 403.662 226.281 421.634 210.408 C 428.186 204.622 434.134 197.918 439.302 190.86 C 446.105 181.571 444.515 172.789 435.72 165.325 C 433.337 163.303 430.618 161.539 427.797 160.193 C 375.398 135.207 322.975 110.272 270.524 85.398 C 251.922 76.576 233.736 78.078 216.111 88.251 C 208.91 92.406 201.842 96.793 194.741 101.119 C 169.46 116.523 144.19 131.947 118.361 147.811 Z"/>
    <path class="mcww-logo-svg" fill="#261e19" opacity="1.000000" stroke="none" d="M 369.942 360.893 C 344.298 370.071 318.753 373.018 292.824 363.981 C 273.747 357.332 257.386 346.107 243.429 331.806 C 226.574 314.535 210.449 296.542 194.235 278.656 C 176.535 259.128 158.596 239.902 136.581 225.032 C 105.213 203.844 70.501 193.401 32.75 192.733 C 29.751 192.68 26.748 192.733 23.755 192.579 C 18.244 192.295 15.015 189.139 15.116 184.293 C 15.216 179.446 18.624 176.149 23.902 176.117 C 59.783 175.901 93.891 183.079 125.866 199.901 C 156.493 216.014 180.67 239.604 203.519 264.966 C 220.899 284.259 238.37 303.503 256.558 322.024 C 268.396 334.079 282.458 343.463 298.731 348.92 C 321.516 356.561 343.832 353.417 365.602 345.047 C 413.294 326.713 453.65 297.782 487.398 259.515 C 487.838 259.015 488.261 258.499 488.729 258.027 C 492.288 254.443 496.784 254.059 500.351 257.024 C 503.967 260.029 504.69 264.672 501.16 268.482 C 492.115 278.246 483.172 288.191 473.319 297.105 C 442.922 324.603 408.767 346.218 369.942 360.893 Z"/>
    <path class="mcww-logo-svg" fill="#261e19" opacity="1.000000" stroke="none" d="M 301.478 468.498 C 281.656 473.111 263.394 470.259 245.314 461.744 C 202.425 441.544 159.077 422.322 116.147 402.209 C 94.154 391.905 82.279 373.908 81.873 349.579 C 81.264 313.1 81.53 276.606 81.465 240.118 C 81.455 234.299 84.961 230.343 89.866 230.343 C 94.619 230.344 97.957 233.872 97.985 239.704 C 98.095 263.177 98.022 286.65 98.035 310.122 C 98.042 322.78 97.938 335.44 98.15 348.094 C 98.46 366.586 106.517 380.148 123.715 388.005 C 167.724 408.111 211.572 428.573 255.678 448.463 C 276.666 457.928 297.2 456.577 317.083 444.138 C 348.968 424.19 380.881 404.261 413.311 385.223 C 429.66 375.625 438.837 362.922 438.501 343.76 C 438.481 342.602 438.983 340.972 439.826 340.337 C 444.28 336.987 448.921 333.887 453.923 330.402 C 455.411 352.356 453.81 372.714 436.775 388.437 C 433.983 391.014 430.871 393.333 427.629 395.319 C 392.023 417.142 356.436 438.996 320.643 460.508 C 314.89 463.966 308.153 465.785 301.478 468.498 Z"/>
</svg>
