<?xml version="1.0" encoding="utf-8"?>
<svg version="1.1" id="Layer_1" xmlns="http://www.w3.org/2000/svg" x="0px" y="0px" width="100%" viewBox="0 0 530 530" enable-background="new 0 0 530 530">
    <style>
        @media (prefers-color-scheme: light) {
            .mcww-logo-svg {
                fill: #18181b;
            }
            .bg-square {
                fill: #f6f5f3;
            }
        }
        @media (prefers-color-scheme: dark) {
            .mcww-logo-svg {
                fill: #f6f5f3;
            }
            .bg-square {
                fill: #18181b;
            }
        }
    </style>
    <rect class="bg-square" fill="#18181b" x="0" y="0" width="530" height="530" rx="80" ry="80"/>
    <path class="mcww-logo-svg" fill="#f6f5f3" opacity="1.000000" stroke="none" d="M 217.075 227.904 C 203.754 218.739 190.873 209.559 177.684 200.844 C 155.82 186.395 131.739 177.703 105.793 174.093 C 91.645 172.124 86.901 162.639 93.919 150.174 C 99.256 140.692 106.788 133.32 116.13 127.698 C 146.356 109.505 176.594 91.33 206.706 72.952 C 230.571 58.387 254.828 57.599 279.9 69.624 C 330.426 93.857 381.02 117.95 431.618 142.033 C 439.226 145.654 446.22 149.97 451.59 156.616 C 461.471 168.842 463.073 182.988 454.106 195.866 C 447.706 205.056 440.009 213.622 431.69 221.139 C 413.906 237.209 393.436 249.371 371.398 258.787 C 332.586 275.369 294.518 273.773 257.672 253.065 C 243.91 245.33 230.79 236.454 217.075 227.904 M 118.361 145.811 C 108.418 155.545 111.403 152.996 107.453 157.076 C 109.375 157.769 109.807 158.01 110.265 158.078 C 143.945 163.081 173.49 177.461 201.152 196.857 C 222.101 211.547 243.387 225.912 265.485 238.768 C 295.87 256.444 328.029 258.463 360.998 245.365 C 383.353 236.484 403.662 224.281 421.634 208.408 C 428.186 202.622 434.134 195.918 439.302 188.86 C 446.105 179.571 444.515 170.789 435.72 163.325 C 433.337 161.303 430.618 159.539 427.797 158.193 C 375.398 133.207 322.975 108.272 270.524 83.398 C 251.922 74.576 233.736 76.078 216.111 86.251 C 208.91 90.406 201.842 94.793 194.741 99.119 C 169.46 114.523 144.19 129.947 118.361 145.811 Z"/>
    <path class="mcww-logo-svg" fill="#f6f5f3" opacity="1.000000" stroke="none" d="M 369.942 358.893 C 344.298 368.071 318.753 371.018 292.824 361.981 C 273.747 355.332 257.386 344.107 243.429 329.806 C 226.574 312.535 210.449 294.542 194.235 276.656 C 176.535 257.128 158.596 237.902 136.581 223.032 C 105.213 201.844 70.501 191.401 32.75 190.733 C 29.751 190.68 26.748 190.733 23.755 190.579 C 18.244 190.295 15.015 187.139 15.116 182.293 C 15.216 177.446 18.624 174.149 23.902 174.117 C 59.783 173.901 93.891 181.079 125.866 197.901 C 156.493 214.014 180.67 237.604 203.519 262.966 C 220.899 282.259 238.37 301.503 256.558 320.024 C 268.396 332.079 282.458 341.463 298.731 346.92 C 321.516 354.561 343.832 351.417 365.602 343.047 C 413.294 324.713 453.65 295.782 487.398 257.515 C 487.838 257.015 488.261 256.499 488.729 256.027 C 492.288 252.443 496.784 252.059 500.351 255.024 C 503.967 258.029 504.69 262.672 501.16 266.482 C 492.115 276.246 483.172 286.191 473.319 295.105 C 442.922 322.603 408.767 344.218 369.942 358.893 Z"/>
    <path class="mcww-logo-svg" fill="#f6f5f3" opacity="1.000000" stroke="none" d="M 301.478 466.498 C 281.656 471.111 263.394 468.259 245.314 459.744 C 202.425 439.544 159.077 420.322 116.147 400.209 C 94.154 389.905 82.279 371.908 81.873 347.579 C 81.264 311.1 81.53 274.606 81.465 238.118 C 81.455 232.299 84.961 228.343 89.866 228.343 C 94.619 228.344 97.957 231.872 97.985 237.704 C 98.095 261.177 98.022 284.65 98.035 308.122 C 98.042 320.78 97.938 333.44 98.15 346.094 C 98.46 364.586 106.517 378.148 123.715 386.005 C 167.724 406.111 211.572 426.573 255.678 446.463 C 276.666 455.928 297.2 454.577 317.083 442.138 C 348.968 422.19 380.881 402.261 413.311 383.223 C 429.66 373.625 438.837 360.922 438.501 341.76 C 438.481 340.602 438.983 338.972 439.826 338.337 C 444.28 334.987 448.921 331.887 453.923 328.402 C 455.411 350.356 453.81 370.714 436.775 386.437 C 433.983 389.014 430.871 391.333 427.629 393.319 C 392.023 415.142 356.436 436.996 320.643 458.508 C 314.89 461.966 308.153 463.785 301.478 466.498 Z"/>
</svg>
