<?xml version="1.0" encoding="utf-8"?>
<svg xmlns="http://www.w3.org/2000/svg" width="1em" height="1em" viewBox="0 0 24 24">
  <g fill="none" stroke="currentColor" stroke-linecap="round" stroke-linejoin="round" stroke-width="1.2">
    <path d="M9 5a2 2 0 0 1 2-2h2a2 2 0 0 1 2 2v2H9z"/>
    <path d="M9 5H7a2 2 0 0 0-2 2v12a2 2 0 0 0 2 2h10a2 2 0 0 0 2-2V7a2 2 0 0 0-2-2h-2"/>
  </g>
  <path fill="currentColor" d="M 12.29 11.494 L 11.385 11.494 L 11.385 14.512 L 13.969 16.046 L 14.403 15.316 L 12.29 14.06 L 12.29 11.494 Z M 11.989 8.477 C 8.988 8.477 6.557 10.909 6.557 13.91 L 4.745 13.91 L 7.135 16.342 L 9.575 13.91 L 7.763 13.91 C 7.763 11.575 9.656 9.684 11.989 9.684 C 14.322 9.684 16.215 11.575 16.215 13.91 C 16.215 16.243 14.322 18.135 11.989 18.135 C 10.824 18.135 9.767 17.658 9.006 16.891 L 8.149 17.748 C 9.163 18.773 10.547 19.347 11.989 19.342 C 14.989 19.342 17.422 16.911 17.422 13.91 C 17.422 10.909 14.989 8.477 11.989 8.477" style="stroke-width: 1px;"/>
</svg>