<?xml version="1.0" encoding="utf-8"?>
<svg xmlns="http://www.w3.org/2000/svg" width="100%" height="100%" viewBox="2 2 22 22">
  <g fill="none" stroke="currentColor" stroke-linecap="round" stroke-linejoin="round" stroke-width="1.2" transform="matrix(1, 0, 0, 1, 1, 0)">
    <path d="M9 5a2 2 0 0 1 2-2h2a2 2 0 0 1 2 2v2H9z"/>
    <path d="M9 5H7a2 2 0 0 0-2 2v12a2 2 0 0 0 2 2h10a2 2 0 0 0 2-2V7a2 2 0 0 0-2-2h-2"/>
  </g>
  <path fill="currentColor" d="M 13.29 11.494 L 12.385 11.494 L 12.385 14.512 L 14.969 16.046 L 15.403 15.316 L 13.29 14.06 L 13.29 11.494 Z M 12.989 8.477 C 9.988 8.477 7.557 10.909 7.557 13.91 L 5.745 13.91 L 8.135 16.342 L 10.575 13.91 L 8.763 13.91 C 8.763 11.575 10.656 9.684 12.989 9.684 C 15.322 9.684 17.215 11.575 17.215 13.91 C 17.215 16.243 15.322 18.135 12.989 18.135 C 11.824 18.135 10.767 17.658 10.006 16.891 L 9.149 17.748 C 10.163 18.773 11.547 19.347 12.989 19.342 C 15.989 19.342 18.422 16.911 18.422 13.91 C 18.422 10.909 15.989 8.477 12.989 8.477" style="stroke-width: 1px;"/>
</svg>